<?xml version="1.0" encoding="UTF-8"?>
<svg xmlns="http://www.w3.org/2000/svg" version="1.1" viewBox="0 0 100 100">
  <defs>
    <style>
      .cls-1 {
        fill: #04bda5;
      }

      .cls-2 {
        fill: #84d9c9;
      }

      .cls-3 {
        fill: #fcfefe;
      }
    </style>
  </defs>
  <!-- Generator: Adobe Illustrator 28.7.1, SVG Export Plug-In . SVG Version: 1.2.0 Build 142)  -->
  <g>
    <g id="Layer_1">
      <path class="cls-1" d="M72.58,65.21c-1.61-1.37-2.28-1.97-2.24-3.89.07-3.79.02-7.58.02-11.37h.03c0-3.79.05-7.58-.01-11.37-.07-4.95-2.31-8.64-6.72-10.92-7.09-3.67-14.52-4.06-22.07-1.8-7.26,2.17-11.51,6.79-11.1,15.39.24,5.15.04,10.32.02,15.49,0,2.01.01,4.03-.12,6.04-.07,1-2.96,4.18-3.49,4.89-.23.3-.47.7-.55.84-3.74,6.36-2.98,15.3,3.83,20.54,10.53,8.1,21.98,8.66,33.98,4.08,3.74-1.43,7.36-3.5,9.64-6.85,3.64-5.36,4.41-11.23,1.45-17.28-.22-.45-1.23-2.6-2.66-3.78ZM50.42,66.45c-1.63-.04-2.73-.97-2.71-2.73.02-1.98,1.37-2.62,3.07-2.59,1.65.03,2.37,1.11,2.5,2.67-.2,1.72-1.2,2.69-2.85,2.65ZM64.91,56.79c0,1.53-.34,2.86-1.85,3.63-1.56.8-2.96.49-4.27-.51-.63-.48-1.18-1.07-1.83-1.53-1.77-1.26-3.51-2.69-5.92-1.5-.2.1-.51.23-.67.15-3.35-1.64-5.46.6-7.65,2.48-1.47,1.27-3.1,1.79-4.87,1-1.63-.73-1.75-2.37-1.75-3.95,0-4.03-.04-8.06.03-12.09.07-3.85,2.84-6.64,6.73-6.78,2.5-.09,5-.02,7.49-.02v-.02c2.5,0,5-.05,7.49.01,4.08.1,6.99,3,7.03,7.03.05,4.03.02,8.06.02,12.09Z"/>
      <path class="cls-3" d="M50.36,37.67c2.5,0,5-.05,7.49.01,4.08.1,6.99,3,7.03,7.03.05,4.03.02,8.06.02,12.09,0,1.53-.34,2.86-1.85,3.63-1.56.8-2.96.49-4.27-.51-.63-.48-1.18-1.07-1.83-1.53-1.77-1.26-3.51-2.69-5.92-1.5-.2.1-.51.23-.67.15-3.35-1.64-5.46.6-7.65,2.48-1.47,1.27-3.1,1.79-4.87,1-1.63-.73-1.75-2.37-1.75-3.95,0-4.03-.04-8.06.03-12.09.07-3.85,2.84-6.64,6.73-6.78,2.5-.09,5-.02,7.49-.02v-.02ZM56.81,50.8c1.37-.05,2.04-.77,2.04-1.79,0-1-.57-1.83-1.79-1.77-1.09.05-1.82.62-1.8,1.76.02,1.08.62,1.75,1.55,1.81ZM45.98,49.09c-.18-1.06-.59-1.85-1.82-1.88-1.25-.03-1.79.73-1.79,1.8,0,.96.53,1.68,1.62,1.74,1.18.06,1.75-.6,1.99-1.65Z"/>
      <path class="cls-3" d="M53.27,63.8c-.2,1.72-1.2,2.69-2.85,2.65-1.63-.04-2.73-.97-2.71-2.73.02-1.98,1.37-2.62,3.07-2.59,1.65.03,2.37,1.11,2.5,2.67Z"/>
      <path class="cls-1" d="M56.81,50.8c-.93-.05-1.54-.72-1.55-1.81-.02-1.14.71-1.7,1.8-1.76,1.22-.06,1.79.77,1.79,1.77,0,1.02-.67,1.74-2.04,1.79Z"/>
      <path class="cls-1" d="M45.98,49.09c-.24,1.06-.81,1.72-1.99,1.65-1.09-.06-1.63-.78-1.62-1.74,0-1.06.55-1.83,1.79-1.8,1.23.03,1.63.82,1.82,1.88Z"/>
      <g>
        <path class="cls-2" d="M51.57,7.18c-10.57,0-20.59,5.71-24.44,12.58-2.83,5.06-3.48,10.83-1.68,15.08,1.16,2.75,3.19,4.57,5.9,5.3.59-.79,1.13-1.54,1.64-2.24,4.19-5.78,6.5-8.96,14.25-9.75,7.72-.79,15.25-.45,22.38,11.87,1.69-.7,5.55-2.76,6.53-7.12,1.25-5.56-3.66-20.59-16.44-24.51-2.69-.83-5.44-1.2-8.15-1.2Z"/>
        <path class="cls-1" d="M50.39,29.12s6.55-.21,13.59-3.82c7.04-3.62,7.68-7,8.06-9.25,0,0,.63.68,1.55,2.33,0,0-.05,3.03-2.94,6.07s-6.03,5.17-11.13,6.4c0,0-8.47-1.4-9.13-1.74Z"/>
        <path class="cls-1" d="M41.9,7.48s-8.73,3.11-12.11,11.84-1.89,14.03,6.03,16.7c0,0-3.25,4.39-4.02,5.46,0,0-8.18-1.26-8.49-11.99s9.87-19.68,18.59-22.01Z"/>
        <path class="cls-1" d="M68.58,42.88l-.44-.79c-6.61-11.97-13.01-12.32-20.69-11.54-6.77.69-8.62,3.24-12.67,8.82-.64.88-1.33,1.84-2.1,2.86l-.42.57-.67-.13c-3.74-.74-6.66-3.17-8.21-6.84-2.1-4.96-1.4-11.59,1.8-17.32C30.55,8.92,45.96,1.63,60.34,6.05c13.81,4.24,19.59,20.38,18.01,27.41-1.57,7-8.64,9.1-8.94,9.19l-.83.24ZM51.57,7.18c-10.57,0-20.59,5.71-24.44,12.58-2.83,5.06-3.48,10.83-1.68,15.08,1.16,2.75,3.19,4.57,5.9,5.3.59-.79,1.13-1.54,1.64-2.24,4.19-5.78,6.5-8.96,14.25-9.75,7.72-.79,15.25-.45,22.38,11.87,1.69-.7,5.55-2.76,6.53-7.12,1.25-5.56-3.66-20.59-16.44-24.51-2.69-.83-5.44-1.2-8.15-1.2Z"/>
      </g>
    </g>
  </g>
</svg>